<svg xmlns="http://www.w3.org/2000/svg" width="240" height="160" viewBox="0 0 240 160">
  <defs>
    <style>
      .bg{fill:#f8fafc}.line{fill:none;stroke:#111827;stroke-width:5;stroke-linecap:round;stroke-linejoin:round}.thin{fill:none;stroke:#111827;stroke-width:3;stroke-linecap:round;stroke-dasharray:8 8;opacity:.55}.ball{fill:#f8fafc;stroke:#111827;stroke-width:4}.soft{fill:none;stroke:#111827;stroke-width:3;stroke-linecap:round;opacity:.35}.label{font:700 13px system-ui,sans-serif;fill:#111827;letter-spacing:.08em}
    </style>
    <symbol id="cascade-3" viewBox="0 0 240 160"><rect class="bg" width="240" height="160" rx="24"/><path class="line" d="M48 102C70 32 111 32 120 104"/><path class="line" d="M192 102C170 32 129 32 120 104"/><path class="thin" d="M48 102C88 130 152 130 192 102"/><circle class="ball" cx="48" cy="102" r="11"/><circle class="ball" cx="120" cy="104" r="11"/><circle class="ball" cx="192" cy="102" r="11"/></symbol>
    <symbol id="reverse-cascade" viewBox="0 0 240 160"><rect class="bg" width="240" height="160" rx="24"/><path class="thin" d="M48 105C70 36 112 32 120 104"/><path class="thin" d="M192 105C170 36 128 32 120 104"/><path class="line" d="M72 112C28 40 92 22 124 86"/><path class="line" d="M168 112C212 40 148 22 116 86"/><circle class="ball" cx="72" cy="112" r="11"/><circle class="ball" cx="120" cy="90" r="11"/><circle class="ball" cx="168" cy="112" r="11"/></symbol>
    <symbol id="tennis" viewBox="0 0 240 160"><rect class="bg" width="240" height="160" rx="24"/><path class="line" d="M48 102C70 36 110 36 120 104"/><path class="line" d="M192 102C170 36 130 36 120 104"/><path class="thin" d="M44 96C86 14 156 14 196 96"/><circle class="ball" cx="48" cy="102" r="11"/><circle class="ball" cx="120" cy="104" r="11"/><circle class="ball" cx="192" cy="96" r="11"/></symbol>
    <symbol id="shower" viewBox="0 0 240 160"><rect class="bg" width="240" height="160" rx="24"/><path class="line" d="M50 105C82 20 160 20 190 105"/><path class="thin" d="M190 108C150 130 90 130 50 108"/><circle class="ball" cx="50" cy="105" r="11"/><circle class="ball" cx="120" cy="42" r="11"/><circle class="ball" cx="190" cy="105" r="11"/></symbol>
    <symbol id="columns" viewBox="0 0 240 160"><rect class="bg" width="240" height="160" rx="24"/><path class="line" d="M64 122V36"/><path class="line" d="M120 122V36"/><path class="line" d="M176 122V36"/><circle class="ball" cx="64" cy="122" r="11"/><circle class="ball" cx="120" cy="54" r="11"/><circle class="ball" cx="176" cy="122" r="11"/></symbol>
    <symbol id="fake-columns" viewBox="0 0 240 160"><rect class="bg" width="240" height="160" rx="24"/><path class="line" d="M64 122V42"/><path class="line" d="M176 122V42"/><path class="thin" d="M82 112C112 92 132 92 162 112"/><circle class="ball" cx="64" cy="122" r="11"/><circle class="ball" cx="120" cy="76" r="11"/><circle class="ball" cx="176" cy="122" r="11"/></symbol>
    <symbol id="box" viewBox="0 0 240 160"><rect class="bg" width="240" height="160" rx="24"/><path class="line" d="M62 122V36"/><path class="line" d="M178 122V36"/><path class="line" d="M72 118C96 132 144 132 168 118"/><circle class="ball" cx="62" cy="122" r="11"/><circle class="ball" cx="120" cy="126" r="11"/><circle class="ball" cx="178" cy="50" r="11"/></symbol>
    <symbol id="factory" viewBox="0 0 240 160"><rect class="bg" width="240" height="160" rx="24"/><path class="line" d="M86 122V36"/><path class="line" d="M128 122C190 116 190 48 128 42"/><path class="thin" d="M128 42C94 54 94 106 128 122"/><circle class="ball" cx="86" cy="52" r="11"/><circle class="ball" cx="128" cy="42" r="11"/><circle class="ball" cx="128" cy="122" r="11"/></symbol>
    <symbol id="windmill" viewBox="0 0 240 160"><rect class="bg" width="240" height="160" rx="24"/><path class="line" d="M52 116C88 20 154 20 188 116"/><path class="thin" d="M44 92C102 48 138 132 196 88"/><path class="line" d="M76 124C108 80 132 80 164 124"/><circle class="ball" cx="52" cy="116" r="11"/><circle class="ball" cx="120" cy="68" r="11"/><circle class="ball" cx="188" cy="116" r="11"/></symbol>
    <symbol id="mills-mess" viewBox="0 0 240 160"><rect class="bg" width="240" height="160" rx="24"/><path class="line" d="M48 108C84 28 136 132 192 52"/><path class="line" d="M192 108C156 28 104 132 48 52"/><path class="thin" d="M68 124C96 86 144 86 172 124"/><circle class="ball" cx="48" cy="108" r="11"/><circle class="ball" cx="120" cy="82" r="11"/><circle class="ball" cx="192" cy="52" r="11"/></symbol>
    <symbol id="circle" viewBox="0 0 240 160"><rect class="bg" width="240" height="160" rx="24"/><path class="line" d="M88 116C54 52 122 18 152 70"/><path class="line" d="M152 70C184 126 110 140 88 116"/><circle class="ball" cx="88" cy="116" r="11"/><circle class="ball" cx="152" cy="70" r="11"/></symbol>
    <symbol id="fountain" viewBox="0 0 240 160"><rect class="bg" width="240" height="160" rx="24"/><path class="line" d="M82 122C36 44 116 20 102 114"/><path class="line" d="M158 122C204 44 124 20 138 114"/><path class="thin" d="M68 116C94 76 94 76 112 44"/><path class="thin" d="M172 116C146 76 146 76 128 44"/><circle class="ball" cx="82" cy="122" r="10"/><circle class="ball" cx="102" cy="54" r="10"/><circle class="ball" cx="138" cy="54" r="10"/><circle class="ball" cx="158" cy="122" r="10"/></symbol>
    <symbol id="five-flash" viewBox="0 0 240 160"><rect class="bg" width="240" height="160" rx="24"/><path class="line" d="M40 112C68 18 114 18 120 112"/><path class="line" d="M200 112C172 18 126 18 120 112"/><path class="thin" d="M70 118C94 48 112 48 120 118"/><path class="thin" d="M170 118C146 48 128 48 120 118"/><circle class="ball" cx="40" cy="112" r="9"/><circle class="ball" cx="80" cy="70" r="9"/><circle class="ball" cx="120" cy="116" r="9"/><circle class="ball" cx="160" cy="70" r="9"/><circle class="ball" cx="200" cy="112" r="9"/></symbol>
    <symbol id="over-shoulder" viewBox="0 0 240 160"><rect class="bg" width="240" height="160" rx="24"/><path class="soft" d="M88 122C92 88 108 70 120 70C132 70 148 88 152 122"/><path class="line" d="M72 104C72 36 156 24 180 86"/><path class="thin" d="M180 86C196 104 196 122 184 134"/><circle class="ball" cx="72" cy="104" r="11"/><circle class="ball" cx="180" cy="86" r="11"/></symbol>
  </defs>
</svg>
